<svg width="19" height="19" viewBox="0 0 19 19" fill="none" xmlns="http://www.w3.org/2000/svg">
<g clip-path="url(#clip0_239_2)">
<path fill-rule="evenodd" clip-rule="evenodd" d="M5.22703 14.227C5.51992 14.5199 5.99479 14.5199 6.28769 14.227L10 10.5147L13.7123 14.227C14.0052 14.5199 14.4801 14.5199 14.773 14.227C15.0659 13.9341 15.0659 13.4593 14.773 13.1664L11.0607 9.45406L14.773 5.74175C15.0659 5.44885 15.0659 4.97398 14.773 4.68109C14.4801 4.38819 14.0052 4.38819 13.7123 4.68109L10 8.3934L6.28769 4.68109C5.9948 4.3882 5.51992 4.38819 5.22703 4.68109C4.93414 4.97398 4.93414 5.44886 5.22703 5.74175L8.93934 9.45406L5.22703 13.1664C4.93413 13.4593 4.93413 13.9341 5.22703 14.227Z" fill="#222325"/>
</g>
<defs>
<clipPath id="clip0_239_2">
<rect width="19" height="19" fill="white"/>
</clipPath>
</defs>
</svg>
