<svg width="24" height="24" viewBox="0 0 24 24" fill="none" xmlns="http://www.w3.org/2000/svg">
<mask id="path-1-inside-1_226_50" fill="white">
<path fill-rule="evenodd" clip-rule="evenodd" d="M20.9506 12.9489C19.6838 14.2162 17.9334 15 16 15C12.134 15 9 11.866 9 8.00001C9 6.06659 9.78384 4.31625 11.0511 3.04944C6.52656 3.52355 3 7.34994 3 12C3 16.9706 7.02944 21 12 21C16.6501 21 20.4765 17.4734 20.9506 12.9489Z"/>
</mask>
<path d="M20.9506 12.9489L21.9451 13.0531L22.2394 10.2453L20.2433 12.2419L20.9506 12.9489ZM11.0511 3.04944L11.7581 3.75666L13.7547 1.76066L10.9469 2.05488L11.0511 3.04944ZM20.2433 12.2419C19.1564 13.3292 17.6575 14 16 14V16C18.2093 16 20.2111 15.1031 21.6578 13.6559L20.2433 12.2419ZM16 14C12.6863 14 10 11.3137 10 8.00001H8C8 12.4183 11.5817 16 16 16V14ZM10 8.00001C10 6.34252 10.6708 4.8436 11.7581 3.75666L10.3441 2.34221C8.89691 3.78891 8 5.79067 8 8.00001H10ZM4 12C4 7.86725 7.13457 4.46531 11.1553 4.04399L10.9469 2.05488C5.91855 2.58179 2 6.83263 2 12H4ZM12 20C7.58172 20 4 16.4183 4 12H2C2 17.5229 6.47715 22 12 22V20ZM19.956 12.8447C19.5347 16.8654 16.1328 20 12 20V22C17.1674 22 21.4182 18.0815 21.9451 13.0531L19.956 12.8447Z" fill="#222325" mask="url(#path-1-inside-1_226_50)"/>
</svg>
