<svg width="24" height="24" viewBox="0 0 24 24" fill="none" xmlns="http://www.w3.org/2000/svg">
<g clip-path="url(#clip0_225_34)">
<path fill-rule="evenodd" clip-rule="evenodd" d="M14.0815 6.11091C16.2294 8.2588 16.2294 11.7412 14.0815 13.8891C11.9336 16.037 8.45118 16.037 6.3033 13.8891C4.15542 11.7412 4.15542 8.2588 6.3033 6.11091C8.45118 3.96303 11.9336 3.96303 14.0815 6.11091ZM15.1287 14.2292C17.3214 11.6755 17.208 7.82325 14.7886 5.40381C12.2502 2.8654 8.1346 2.8654 5.59619 5.40381C3.05779 7.94221 3.05779 12.0578 5.59619 14.5962C8.01564 17.0156 11.8679 17.129 14.4216 14.9364L19.7383 20.253C19.9336 20.4483 20.2502 20.4483 20.4454 20.253C20.6407 20.0578 20.6407 19.7412 20.4454 19.5459L15.1287 14.2292Z" fill="#747474"/>
</g>
<defs>
<clipPath id="clip0_225_34">
<rect width="24" height="24" fill="white"/>
</clipPath>
</defs>
</svg>
